<svg width="40" height="40" viewBox="0 0 40 40" fill="none" xmlns="http://www.w3.org/2000/svg">
<g id="ion:shirt">
<path id="Vector" d="M20 7.5C22.5843 7.5 24.7429 5.48594 25 2.96875C25.0234 2.73438 24.7656 2.5 24.5312 2.5C24.4045 2.50013 24.2789 2.52397 24.1609 2.57031C24.1453 2.57656 22.5125 3.20312 20 3.20312C17.4875 3.20312 15.8515 2.57813 15.839 2.57031C15.7059 2.52399 15.5659 2.50023 15.425 2.5H15.4203C15.3619 2.5031 15.3046 2.51769 15.2519 2.54294C15.1991 2.56818 15.1519 2.6036 15.1128 2.64714C15.0738 2.69069 15.0437 2.74151 15.0244 2.7967C15.005 2.85189 14.9967 2.91035 15 2.96875C15.2617 5.48125 17.4218 7.5 20 7.5Z" fill="#535353"/>
<path id="Vector_2" d="M37.9133 7.02329L27.8125 3.48735C27.7693 3.47226 27.7233 3.46687 27.6777 3.47154C27.6321 3.47621 27.5882 3.49084 27.5489 3.5144C27.5096 3.53795 27.476 3.56985 27.4504 3.60784C27.4248 3.64583 27.4079 3.68898 27.4008 3.73423C27.1086 5.48506 26.2048 7.0755 24.8503 8.22268C23.4957 9.36987 21.7782 9.99945 20.0032 9.99945C18.2281 9.99945 16.5106 9.36987 15.156 8.22268C13.8015 7.0755 12.8977 5.48506 12.6055 3.73423C12.5986 3.68822 12.5816 3.64433 12.5556 3.60574C12.5297 3.56716 12.4954 3.53486 12.4553 3.5112C12.4153 3.48755 12.3705 3.47313 12.3241 3.46901C12.2778 3.46488 12.2311 3.47115 12.1875 3.48735L2.08675 7.02329C1.80404 7.12226 1.56626 7.31946 1.41671 7.57899C1.26716 7.83852 1.21577 8.14313 1.27191 8.43735L2.57113 15.3124C2.62113 15.5744 2.75365 15.8136 2.94932 15.9949C3.14499 16.1762 3.39354 16.2902 3.65863 16.3202L7.47738 16.7514C7.63326 16.769 7.77684 16.8446 7.87959 16.9631C7.98235 17.0816 8.03678 17.2345 8.03206 17.3913L7.45941 36.2116C7.45182 36.4541 7.515 36.6937 7.64124 36.9009C7.76748 37.1082 7.95133 37.2742 8.17034 37.3788C8.3524 37.461 8.55027 37.5023 8.75003 37.4999H31.25C31.4498 37.5023 31.6477 37.461 31.8297 37.3788C32.0487 37.2742 32.2326 37.1082 32.3588 36.9009C32.4851 36.6937 32.5482 36.4541 32.5407 36.2116L31.968 17.3913C31.9633 17.2345 32.0177 17.0816 32.1205 16.9631C32.2232 16.8446 32.3668 16.769 32.5227 16.7514L36.3414 16.3202C36.6065 16.2902 36.8551 16.1762 37.0507 15.9949C37.2464 15.8136 37.3789 15.5744 37.4289 15.3124L38.7282 8.43735C38.7843 8.14313 38.7329 7.83852 38.5834 7.57899C38.4338 7.31946 38.196 7.12226 37.9133 7.02329Z" fill="#535353"/>
</g>
</svg>
