<svg xmlns="http://www.w3.org/2000/svg" viewBox="0 0 445.37 101.87" fill="#ffffff">
    <title>text</title>
    <g id="Layer_2" data-name="Layer 2">
        <path
            d="M132,119.71l-18.6-41s-28-1.3-43.81,10.52L81.08,63.52l5.76,12.35a107.59,107.59,0,0,1,24.59-2.36l-24.09-55S75,20.13,61.09,50s-30.84,69.72-30.84,69.72,20-2.71,33.55-15.49A57.9,57.9,0,0,1,92.51,89.3l4.86,10.84S107.61,121.44,132,119.71Z"
            transform="translate(-30.25 -17.94)" />
    </g>
    <g id="Layer_7_copy" data-name="Layer 7 copy">
        <path d="M140.79,80c-.23,3.25-1.83,35.51,26,39.86V78.67h-26Z"
            transform="translate(-30.25 -17.94)" />
        <polygon
            points="136.56 22.58 166.56 22.58 166.4 0.24 63.42 0.24 63.89 1.24 73.56 22.58 110.56 22.58 110.54 55.57 136.56 55.57 136.56 22.58" />
        <polygon
            points="176.38 61.8 176.38 65.33 176.38 101.67 199.97 101.67 202.46 101.67 244.62 101.67 251.5 79.32 202.46 79.32 202.46 65.33 202.46 61.8 202.46 60.73 176.38 60.73 176.38 61.8" />
        <path
            d="M232.7,71.56V53.64a42,42,0,0,0-1.12-9.94c-.24-1-.52-2-.86-3l0,0c-2.76-9.58-9.22-19.86-24.07-22.18v55H232.7Z"
            transform="translate(-30.25 -17.94)" />
        <polygon
            points="250.33 101.67 279.17 101.67 284.88 82.12 317.11 82.12 322.82 101.67 351.95 101.67 338.7 60.73 263.52 60.73 250.33 101.67" />
        <path
            d="M331.39,51l8.17,22.54h27.72l-17.8-55h0A49.89,49.89,0,0,0,302,53.1l-6.57,20.41h27.95Z"
            transform="translate(-30.25 -17.94)" />
        <path
            d="M466.81,73.51H456.45v5.16h10.37a16.29,16.29,0,0,0,8.79-2.58h0l-.33-.21A16.31,16.31,0,0,0,466.81,73.51Z"
            transform="translate(-30.25 -17.94)" />
        <path d="M480.71,76.09" transform="translate(-30.25 -17.94)" />
        <path d="M480.71,76.09" transform="translate(-30.25 -17.94)" />
        <path
            d="M445.16,71.58l2.55-1.3q-6.61-6.75-19.9-9.69L411.23,57q-6.39-1.47-9-3.92a7.59,7.59,0,0,1-2.59-6,8,8,0,0,1,4-7.1,17.93,17.93,0,0,1,10-2.66h35.89a30,30,0,0,0-9-11.5q-10-7.9-27.35-7.9-17.59,0-28.24,8.22T374.37,48.64q-.09,17.55,16.13,24.87H441c.49-1,1.23-2.07,1.25-2.12A28.27,28.27,0,0,1,445.16,71.58Z"
            transform="translate(-30.25 -17.94)" />
        <path
            d="M449.29,70.61,447,72.35s-2.91.24-2.93.34-.53,1.26-.84,2.31l9.22-1.69A23.12,23.12,0,0,0,449.29,70.61Z"
            transform="translate(-30.25 -17.94)" />
        <path
            d="M448.57,77.7a12.07,12.07,0,0,0,.78,1.14l3.1.9L455,82.58a25.35,25.35,0,0,0-1.12-4.88Z"
            transform="translate(-30.25 -17.94)" />
        <path
            d="M449.51,82.29a12.22,12.22,0,0,1,.72-2l-1.81-.53a9.71,9.71,0,0,1-.79-1.14H409.39l7.33,1.57q11.56,2.51,11.75,9.83a8.6,8.6,0,0,1-4.15,7.19q-4.06,2.82-10.69,2.83H381.84L388,119.66l15.65.08v0l9.82,0h.44l1.9,0a50.3,50.3,0,0,0,18.71-4A34.81,34.81,0,0,0,449,104.33a28.38,28.38,0,0,0,5.27-16.79c-1.25-1.14-3-2.83-3-2.83A21.43,21.43,0,0,1,449.51,82.29Z"
            transform="translate(-30.25 -17.94)" />
        <path
            d="M456.57,69.93l-2.18-.69h-.19l-.75.2a7.11,7.11,0,0,0,.22,1.29,13.59,13.59,0,0,0,1.77.71s1.49.36,2.54.57a.83.83,0,0,0-.07-.13A16.21,16.21,0,0,0,456.57,69.93Z"
            transform="translate(-30.25 -17.94)" />
    </g>
</svg>